<svg width="48" height="48" viewBox="0 0 48 48" xmlns="http://www.w3.org/2000/svg">
  <rect width="48" height="48" rx="11" fill="#163A6B"/>
  
  <path d="M24,7 L38,14 L38,28 Q38,40 24,45 Q10,40 10,28 L10,14 Z" fill="#1E5099"/>
  
  <line x1="17" y1="38" x2="17" y2="16" stroke="#27AE60" stroke-width="1.3" stroke-linecap="round"/>
  <ellipse cx="13" cy="31" rx="3.5" ry="6.5" fill="#2ECC71" transform="rotate(-20,13,31)"/>
  <ellipse cx="19" cy="22" rx="3.5" ry="6.5" fill="#27AE60" transform="rotate(16,19,22)"/>
  
  <line x1="31" y1="38" x2="31" y2="16" stroke="#27AE60" stroke-width="1.3" stroke-linecap="round"/>
  <ellipse cx="35" cy="31" rx="3.5" ry="6.5" fill="#2ECC71" transform="rotate(20,35,31)"/>
  <ellipse cx="29" cy="22" rx="3.5" ry="6.5" fill="#27AE60" transform="rotate(-16,29,22)"/>
  
  <path d="M16,28 L23,37 L39,15" fill="none" stroke="white" stroke-width="2.5" stroke-linecap="round" stroke-linejoin="round"/>
</svg>