<svg width="200" height="56" viewBox="0 0 200 56" xmlns="http://www.w3.org/2000/svg">
  <path d="M40,8 L58,16 L58,34 Q58,48 40,54 Q22,48 22,34 L22,16 Z" fill="#1A4B8C"/>
  <path d="M40,12 L55,19 L55,34 Q55,45 40,50 Q25,45 25,34 L25,19 Z" fill="#2060B0"/>
  
  <line x1="32" y1="44" x2="32" y2="19" stroke="#27AE60" stroke-width="1.3" stroke-linecap="round"/>
  <ellipse cx="28" cy="37" rx="4" ry="7" fill="#2ECC71" transform="rotate(-20,28,37)"/>
  <ellipse cx="35" cy="28" rx="4" ry="7" fill="#27AE60" transform="rotate(16,35,28)"/>
  
  <line x1="48" y1="44" x2="48" y2="19" stroke="#27AE60" stroke-width="1.3" stroke-linecap="round"/>
  <ellipse cx="52" cy="37" rx="4" ry="7" fill="#2ECC71" transform="rotate(20,52,37)"/>
  <ellipse cx="45" cy="28" rx="4" ry="7" fill="#27AE60" transform="rotate(-16,45,28)"/>
  
  <path d="M31,32 L39,42 L56,18" fill="none" stroke="white" stroke-width="2.5" stroke-linecap="round" stroke-linejoin="round"/>
  
  <text x="73" y="24" font-family="sans-serif" font-size="13" font-weight="700" fill="#1A4B8C" letter-spacing="0.3">FOOD EXPERTISE</text>
  <text x="73" y="44" font-family="sans-serif" font-size="10" font-weight="500" fill="#27AE60" letter-spacing="3">PORTAL</text>
</svg>