<svg width="240" height="280" viewBox="0 0 240 280" xmlns="http://www.w3.org/2000/svg">
  <path d="M120,20 L162,38 L162,86 Q162,120 120,136 Q78,120 78,86 L78,38 Z" fill="#163A6B" stroke="#1E5099" stroke-width="1"/>
  <path d="M120,28 L156,44 L156,86 Q156,114 120,128 Q84,114 84,86 L84,44 Z" fill="#1E5099"/>
  
  <line x1="104" y1="110" x2="104" y2="58" stroke="#27AE60" stroke-width="2" stroke-linecap="round"/>
  <ellipse cx="98" cy="96" rx="6" ry="11" fill="#2ECC71" transform="rotate(-22,98,96)"/>
  <ellipse cx="108" cy="82" rx="6" ry="11" fill="#27AE60" transform="rotate(18,108,82)"/>
  <ellipse cx="98" cy="69" rx="5" ry="9" fill="#2ECC71" transform="rotate(-18,98,69)"/>
  
  <line x1="136" y1="110" x2="136" y2="58" stroke="#27AE60" stroke-width="2" stroke-linecap="round"/>
  <ellipse cx="142" cy="96" rx="6" ry="11" fill="#2ECC71" transform="rotate(22,142,96)"/>
  <ellipse cx="132" cy="82" rx="6" ry="11" fill="#27AE60" transform="rotate(-18,132,82)"/>
  <ellipse cx="142" cy="69" rx="5" ry="9" fill="#2ECC71" transform="rotate(18,142,69)"/>
  
  <path d="M104,84 L115,98 L140,64" fill="none" stroke="white" stroke-width="4" stroke-linecap="round" stroke-linejoin="round"/>
  
  <!-- <text x="120" y="172" text-anchor="middle" font-family="sans-serif" font-size="22" font-weight="700" fill="#6BA8E0" letter-spacing="1">FOOD</text>
  <text x="120" y="198" text-anchor="middle" font-family="sans-serif" font-size="22" font-weight="700" fill="#2ECC71" letter-spacing="1">EXPERTISE</text>
  <line x1="30" y1="208" x2="210" y2="208" stroke="#1E3A5A" stroke-width="0.5"/>
  <text x="120" y="226" text-anchor="middle" font-family="sans-serif" font-size="11" font-weight="500" fill="#4A7A9B" letter-spacing="4">PORTAL</text> -->
</svg>