<svg width="320" height="360" viewBox="0 0 320 360" xmlns="http://www.w3.org/2000/svg">
  <rect width="320" height="360" fill="#0D1B2A"/>
  <!-- Shield -->
  <path d="M160,40 L210,62 L210,120 Q210,160 160,178 Q110,160 110,120 L110,62 Z" fill="#163A6B" stroke="#1E5099" stroke-width="1"/>
  <path d="M160,50 L202,70 L202,120 Q202,154 160,170 Q118,154 118,120 L118,70 Z" fill="#1E5099"/>
  <!-- Wheat left -->
  <line x1="142" y1="148" x2="142" y2="88" stroke="#27AE60" stroke-width="2.2" stroke-linecap="round"/>
  <ellipse cx="135" cy="133" rx="7" ry="13" fill="#2ECC71" transform="rotate(-22,135,133)"/>
  <ellipse cx="147" cy="116" rx="7" ry="13" fill="#27AE60" transform="rotate(18,147,116)"/>
  <ellipse cx="135" cy="101" rx="6" ry="10" fill="#2ECC71" transform="rotate(-18,135,101)"/>
  <!-- Wheat right -->
  <line x1="178" y1="148" x2="178" y2="88" stroke="#27AE60" stroke-width="2.2" stroke-linecap="round"/>
  <ellipse cx="185" cy="133" rx="7" ry="13" fill="#2ECC71" transform="rotate(22,185,133)"/>
  <ellipse cx="173" cy="116" rx="7" ry="13" fill="#27AE60" transform="rotate(-18,173,116)"/>
  <ellipse cx="185" cy="101" rx="6" ry="10" fill="#2ECC71" transform="rotate(18,185,101)"/>
  <!-- Checkmark -->
  <path d="M142,116 L155,133 L184,96" fill="none" stroke="white" stroke-width="4.5" stroke-linecap="round" stroke-linejoin="round"/>
  <!-- Wordmark -->
  <text x="160" y="222" text-anchor="middle" font-family="Arial,sans-serif" font-size="32" font-weight="700" fill="#6BA8E0" letter-spacing="1">FOOD</text>
  <text x="160" y="260" text-anchor="middle" font-family="Arial,sans-serif" font-size="26" font-weight="700" fill="#2ECC71" letter-spacing="0.5">EXPERTISE</text>
  <line x1="60" y1="272" x2="260" y2="272" stroke="#1E3A5A" stroke-width="0.7"/>
  <text x="160" y="294" text-anchor="middle" font-family="Arial,sans-serif" font-size="13" font-weight="500" fill="#4A7A9B" letter-spacing="6">PORTAL</text>
</svg>
