<svg width="420" height="100" viewBox="0 0 420 100" xmlns="http://www.w3.org/2000/svg">
  <rect width="420" height="100" fill="#0D1B2A"/>
  <path d="M50,10 L74,20 L74,52 Q74,72 50,80 Q26,72 26,52 L26,20 Z" fill="#163A6B" stroke="#1E5099" stroke-width="0.8"/>
  <path d="M50,16 L70,25 L70,52 Q70,66 50,74 Q30,66 30,52 L30,25 Z" fill="#1E5099"/>
  <line x1="41" y1="66" x2="41" y2="30" stroke="#27AE60" stroke-width="1.6" stroke-linecap="round"/>
  <ellipse cx="36" cy="57" rx="5" ry="9" fill="#2ECC71" transform="rotate(-22,36,57)"/>
  <ellipse cx="44" cy="46" rx="5" ry="9" fill="#27AE60" transform="rotate(18,44,46)"/>
  <ellipse cx="36" cy="37" rx="4" ry="7" fill="#2ECC71" transform="rotate(-18,36,37)"/>
  <line x1="59" y1="66" x2="59" y2="30" stroke="#27AE60" stroke-width="1.6" stroke-linecap="round"/>
  <ellipse cx="64" cy="57" rx="5" ry="9" fill="#2ECC71" transform="rotate(22,64,57)"/>
  <ellipse cx="56" cy="46" rx="5" ry="9" fill="#27AE60" transform="rotate(-18,56,46)"/>
  <ellipse cx="64" cy="37" rx="4" ry="7" fill="#2ECC71" transform="rotate(18,64,37)"/>
  <path d="M40,48 L49,60 L68,34" fill="none" stroke="white" stroke-width="3" stroke-linecap="round" stroke-linejoin="round"/>
  <text x="94" y="40" font-family="Arial,sans-serif" font-size="22" font-weight="700" fill="#6BA8E0" letter-spacing="0.5">FOOD EXPERTISE</text>
  <line x1="94" y1="52" x2="400" y2="52" stroke="#1E3A5A" stroke-width="0.5"/>
  <text x="94" y="70" font-family="Arial,sans-serif" font-size="12" font-weight="500" fill="#2ECC71" letter-spacing="5">PORTAL</text>
</svg>
